<svg width="79" height="77" viewBox="0 0 79 77" fill="none" xmlns="http://www.w3.org/2000/svg">
<g clip-path="url(#clip0_229_3)">
<path d="M13.9896 0H65.0104C72.7458 0 79 6.25132 79 13.9832V63.0068C79 70.7387 72.7458 76.99 65.0104 76.99H13.9896C6.25417 76.99 0 70.7387 0 63.0068V13.9832C0 6.25132 6.25417 0 13.9896 0Z" fill="#330000"/>
<path d="M38.1833 46.0624H25.9383L23.4367 53.7943C23.3708 54.0904 23.1075 54.2878 22.8112 54.2549H16.6229C16.2608 54.2549 16.1621 54.0575 16.2608 53.6627L26.86 23.1628C26.9587 22.8338 27.0575 22.4719 27.1892 22.077C27.3208 21.3861 27.3867 20.6623 27.3867 19.9384C27.3537 19.7739 27.4854 19.6094 27.65 19.5765H36.1754C36.4387 19.5765 36.5704 19.6752 36.6033 19.8397L48.6179 53.7285C48.7167 54.0904 48.6179 54.2549 48.2887 54.2549H41.4092C41.1787 54.2878 40.9483 54.1233 40.8825 53.893L38.1833 46.0624ZM27.8475 39.3833H36.2083C36.0108 38.6924 35.7475 37.8699 35.4512 37.0144C35.155 36.1261 34.8587 35.1719 34.5625 34.1849C34.2333 33.1649 33.9371 32.1779 33.6079 31.1579C33.2787 30.138 32.9825 29.1838 32.7192 28.2297C32.4558 27.3084 32.2254 26.453 31.995 25.6633H31.9292C31.6329 27.0781 31.2708 28.4929 30.81 29.9077C30.3162 31.4869 29.8225 33.132 29.2958 34.7771C28.835 36.4551 28.3412 38.0015 27.8475 39.3833ZM55.9583 25.3343C54.8721 25.3672 53.8187 24.9395 53.0287 24.1828C52.2717 23.3602 51.8767 22.2745 51.9096 21.1558C51.8767 20.0371 52.3046 18.9843 53.0946 18.2275C53.8846 17.4708 54.9379 17.076 56.0242 17.076C57.3079 17.076 58.2954 17.4708 59.0196 18.2275C59.7437 19.0172 60.1387 20.07 60.1058 21.1558C60.1387 22.2745 59.7437 23.3602 58.9537 24.1828C58.1967 24.9724 57.0775 25.4001 55.9583 25.3343ZM52.2717 53.893V28.5587C52.2717 28.2297 52.4033 28.0981 52.6996 28.0981H59.2171C59.5133 28.0981 59.645 28.2626 59.645 28.5587V53.893C59.645 54.2549 59.5133 54.4194 59.2171 54.4194H52.7654C52.4362 54.4194 52.2717 54.222 52.2717 53.893Z" fill="#FF9A00"/>
</g>
<defs>
<clipPath id="clip0_229_3">
<rect width="79" height="76.99" fill="white"/>
</clipPath>
</defs>
</svg>
