<svg width="79" height="77" viewBox="0 0 79 77" fill="none" xmlns="http://www.w3.org/2000/svg">
<g clip-path="url(#clip0_229_6)">
<path d="M13.9896 0H65.0104C72.7458 0 79 6.25132 79 13.9832V63.0068C79 70.7387 72.7458 76.99 65.0104 76.99H13.9896C6.25417 76.99 0 70.7387 0 63.0068V13.9832C0 6.25132 6.25417 0 13.9896 0Z" fill="#00005B"/>
<path d="M31.7317 46.0624H19.4867L16.985 53.8272C16.9192 54.1233 16.6558 54.3207 16.3596 54.2878H10.1712C9.80916 54.2878 9.71041 54.0904 9.80916 53.6956L20.4083 23.3273C20.5071 22.9983 20.6058 22.7022 20.7375 22.3074C20.8692 21.6164 20.935 20.8926 20.935 20.1687C20.9021 20.0042 21.0337 19.8397 21.1983 19.8068H21.2971H29.7237C29.9542 19.8068 30.1187 19.9055 30.1517 20.07L42.1663 53.6298C42.265 53.9917 42.1662 54.1562 41.8371 54.1562H34.9575C34.7271 54.1891 34.4967 54.0246 34.4308 53.7943L31.7317 45.8979V46.0624ZM21.3958 39.5149H29.7567C29.5592 38.824 29.2958 38.0015 28.9996 37.146C28.7033 36.2577 28.4071 35.3035 28.1108 34.3165C27.7817 33.2965 27.4854 32.3095 27.1562 31.2895C26.8271 30.2696 26.5308 29.3154 26.2675 28.3613C26.0042 27.44 25.7737 26.5846 25.5433 25.7949H25.4775C25.1812 27.2097 24.8192 28.6245 24.3583 30.0393C23.8646 31.6185 23.3708 33.2636 22.8442 34.9087C22.4162 36.5867 21.8896 38.1331 21.3958 39.5149Z" fill="#9999FF"/>
<path d="M61.5542 43.1012H51.1196C51.2513 44.1212 51.5804 45.1411 52.14 46.0295C52.7325 46.9178 53.5554 47.6088 54.5429 48.0036C55.8596 48.5629 57.3079 48.859 58.7563 48.8261C59.9083 48.7932 61.0604 48.6945 62.1796 48.4642C63.2 48.3326 64.1875 48.0694 65.1092 47.7075C65.2738 47.5759 65.3725 47.6417 65.3725 47.9707V53.0046C65.3725 53.1362 65.3396 53.2679 65.3067 53.3995C65.2408 53.4982 65.175 53.564 65.0763 53.6298C64.0229 54.0904 62.9367 54.4194 61.7846 54.6168C60.2375 54.9129 58.6904 55.0445 57.1104 55.0116C54.6088 55.0116 52.5021 54.6168 50.7904 53.8601C49.1775 53.1691 47.7621 52.0834 46.6429 50.7344C45.5896 49.4513 44.8325 48.0036 44.3717 46.4243C43.9108 44.8779 43.6804 43.2657 43.6804 41.6206C43.6804 39.844 43.9438 38.1002 44.5033 36.3893C45.03 34.7442 45.8529 33.2307 46.9721 31.8817C48.0583 30.5657 49.4079 29.5128 50.955 28.7561C52.5021 27.9993 54.3454 27.7361 56.4521 27.7361C58.1967 27.7032 59.9413 28.0322 61.5542 28.7561C62.9038 29.3483 64.0888 30.2367 65.0104 31.3882C65.8663 32.5069 66.5575 33.7571 66.9854 35.139C67.4133 36.4551 67.6108 37.804 67.6108 39.153C67.6108 39.9427 67.5779 40.6336 67.545 41.2587C67.4792 41.8839 67.4463 42.3445 67.4133 42.6406C67.3804 42.8709 67.1829 43.0683 66.9525 43.0683C66.755 43.0683 66.3929 43.1012 65.8663 43.1341C65.3396 43.1999 64.7142 43.2328 63.9571 43.2328C63.2 43.2328 62.41 43.1012 61.5542 43.1012ZM51.1196 38.2976H58.065C58.9208 38.2976 59.5463 38.2976 59.9413 38.2647C60.2046 38.2318 60.4679 38.166 60.6983 38.0015V37.6724C60.6983 37.2447 60.6325 36.8499 60.5008 36.4551C59.9083 34.6126 58.1638 33.3623 56.2217 33.4281C54.4113 33.3294 52.6996 34.2836 51.8438 35.9287C51.4488 36.6854 51.2183 37.475 51.1196 38.2976Z" fill="#9999FF"/>
</g>
<defs>
<clipPath id="clip0_229_6">
<rect width="79" height="76.99" fill="white"/>
</clipPath>
</defs>
</svg>
